<svg id="图层_1" data-name="图层 1" xmlns="http://www.w3.org/2000/svg" viewBox="0 0 420.56 210.63"><path d="M179.4,225.27l3.45,5.26q-19.44,19.58-27.81,24.1t-13.29,4.53q-6.39,0-6.4-6.72a33.66,33.66,0,0,1,1.24-7.3l4.18-17.53q-12.32,15.78-22.27,23.66t-19.07,7.89q-6.9,0-11-6.87t-4.06-19.13q0-19,10.83-44.7T120.59,149q14.52-13.72,28.79-13.73a45.62,45.62,0,0,1,7.14.59q5.16-26.29,10.58-40.17a70.15,70.15,0,0,1,14.15-23.08,63,63,0,0,1,19.07-14Q210.66,53.8,218,53.79q11.33,0,11.32,10.81,0,9.93-11.07,9.93a40,40,0,0,1-9.85-1.46,42,42,0,0,0-9.59-1.46q-8.86,0-12.31,8.32T175,128.87l-17,86.18q-3,15.19-3,20.16,0,5.55,3.69,5.55Q162.68,240.76,179.4,225.27Zm-25.59-73.62Q145.2,149,140.28,149q-16.5,0-27.07,27.17t-10.59,46.75q0,7.59,3,12.12a9,9,0,0,0,7.87,4.53q6.64,0,14.77-8.18A52.14,52.14,0,0,0,140,213.88q3.69-9.34,8.37-33.6Z" transform="translate(-84.41 -53.79)"/><path d="M244.62,139.09q5.4-4.38,8.61-4.38a4.48,4.48,0,0,1,3.69,1.9,6.39,6.39,0,0,1,1.48,3.94q0,5.55-7.14,7.89l-9.35,21.62Q235,185.54,235,205.12q0,16.65,4.92,39.14,18-14.31,34.45-38.85-.74-36.22,5.54-53.46t13.41-17.24c2.62,0,4.76,1.42,6.4,4.24s2.46,6.47,2.46,11q0,6.14-2.71,16.8a126.81,126.81,0,0,1-7.13,20.59q0,36.53,4.67,57,23.39-19.27,35.81-41.19t12.43-38.27a34.55,34.55,0,0,0-2.46-11.39q-3-7.6-3-12.27t3-6.72a9.54,9.54,0,0,1,5.16-2q8.13,0,8.12,20.74,0,29.22-21.41,61.5T282,264.42q-3.45-14.31-6.89-46.16-29.3,36.53-51.43,46.16-.25-4.38-3.94-26.29-4.19-24.82-4.18-37.4a71.6,71.6,0,0,1,6.4-28.92,67.65,67.65,0,0,1,18-24.54q-18.45.58-27.81,4.53t-9.35,10.08A18.87,18.87,0,0,0,204,168a18.43,18.43,0,0,1,1.23,5.85,5.43,5.43,0,0,1-2,4.67,6.06,6.06,0,0,1-3.44,1.46q-3.21,0-5.29-3.36t-2.1-9.2q0-14.61,13.66-21.91T244.62,139.09Z" transform="translate(-84.41 -53.79)"/><path d="M455,225.27l3.45,5.26q-19.46,19.58-27.81,24.1t-13.29,4.53q-6.4,0-6.4-6.72a34.13,34.13,0,0,1,1.23-7.3l4.18-17.53q-12.3,15.78-22.27,23.66T375,259.16q-6.89,0-11-6.87T360,233.16q0-19,10.83-44.7T396.21,149Q410.72,135.3,425,135.29a45.59,45.59,0,0,1,7.13.59q5.17-26.29,10.59-40.17a69.82,69.82,0,0,1,14.15-23.08,63,63,0,0,1,19.07-14q10.33-4.81,17.72-4.82Q505,53.79,505,64.6q0,9.93-11.08,9.93a39.83,39.83,0,0,1-9.84-1.46,42.16,42.16,0,0,0-9.6-1.46q-8.85,0-12.3,8.32t-11.57,48.94l-17,86.18q-3,15.19-2.95,20.16,0,5.55,3.69,5.55Q438.28,240.76,455,225.27Zm-25.59-73.62Q420.81,149,415.89,149q-16.49,0-27.07,27.17t-10.58,46.75q0,7.59,2.95,12.12a9,9,0,0,0,7.88,4.53q6.65,0,14.76-8.18a52,52,0,0,0,11.82-17.53q3.69-9.34,8.36-33.6Z" transform="translate(-84.41 -53.79)"/></svg>