<?xml version="1.0" standalone="no"?>
<!DOCTYPE svg PUBLIC "-//W3C//DTD SVG 20010904//EN"
 "http://www.w3.org/TR/2001/REC-SVG-20010904/DTD/svg10.dtd">
<svg version="1.0" xmlns="http://www.w3.org/2000/svg"
 width="512.000000pt" height="512.000000pt" viewBox="0 0 512.000000 512.000000"
 preserveAspectRatio="xMidYMid meet">
<metadata>
Created by potrace 1.11, written by Peter Selinger 2001-2013
</metadata>
<g transform="translate(0.000000,512.000000) scale(0.100000,-0.100000)"
fill="#000000" stroke="none">
<path d="M2379 5116 c-2 -2 -33 -6 -69 -9 -77 -7 -270 -36 -280 -42 -4 -2 -22
-7 -41 -10 -57 -10 -209 -54 -299 -87 -409 -148 -795 -414 -1069 -738 -35 -41
-73 -86 -84 -100 -41 -49 -164 -237 -213 -325 -171 -308 -276 -639 -312 -985
-14 -140 -7 -504 12 -615 3 -16 8 -43 10 -60 8 -58 38 -191 62 -277 141 -505
434 -952 850 -1296 l52 -42 24 33 c14 17 32 46 41 63 37 73 40 233 7 364 -10
41 -21 89 -24 105 -3 17 -8 41 -10 55 -33 171 -28 283 19 401 5 14 -11 23 -88
48 -102 34 -193 84 -245 134 -36 34 -72 102 -72 134 0 54 107 263 135 263 8 0
13 -15 13 -42 5 -179 121 -328 294 -376 37 -10 39 -9 107 48 128 107 209 155
282 165 108 15 345 58 364 66 11 5 43 22 70 38 58 34 37 22 320 180 193 107
228 131 286 190 131 137 245 311 292 451 27 79 33 114 42 270 3 52 8 115 11
140 3 28 -3 91 -16 158 -20 109 -21 190 -5 329 5 40 4 43 -37 71 -98 68 -186
186 -153 205 45 25 160 10 181 -24 11 -18 22 10 18 45 -9 62 -38 123 -104 216
-83 118 -129 197 -163 280 -22 54 -25 77 -23 140 2 41 11 92 19 113 21 48 110
143 148 156 37 13 37 8 -6 -37 -20 -20 -49 -65 -66 -99 -57 -114 -36 -231 62
-335 43 -46 45 -46 70 -31 17 10 30 31 38 62 44 158 85 231 144 260 24 12 49
21 55 21 19 0 14 -16 -10 -29 -43 -23 -94 -107 -114 -186 -24 -93 -23 -184 3
-227 28 -49 66 -64 123 -49 61 17 97 39 133 84 27 32 31 46 32 97 0 64 8 77
21 33 17 -61 13 -127 -11 -168 -42 -74 1 -111 92 -81 68 23 141 73 181 126
l34 44 -5 -35 c-11 -86 -76 -166 -154 -193 -39 -13 -76 -15 -193 -10 -80 2
-150 5 -156 6 -7 1 -25 -4 -42 -11 -52 -22 -50 -77 4 -135 60 -64 103 -78 254
-87 100 -5 166 -16 254 -39 183 -47 354 -106 390 -134 64 -48 56 -122 -16
-151 -23 -9 -61 -30 -86 -47 -26 -18 -62 -33 -86 -35 -72 -8 -115 -23 -150
-54 -34 -29 -34 -30 -29 -97 7 -89 6 -203 -1 -397 l-6 -160 43 -66 c119 -180
196 -365 213 -508 3 -31 8 -58 10 -60 1 -2 66 15 144 38 302 89 430 120 454
111 37 -14 104 -100 111 -142 6 -33 -2 -55 -64 -181 l-71 -144 -5 -188 -5
-188 -107 -111 c-58 -61 -124 -135 -146 -164 -39 -51 -58 -61 -62 -31 -9 60
-15 192 -10 211 3 13 25 36 49 51 78 49 77 46 91 242 3 44 7 96 10 115 2 19 7
63 10 98 l7 62 -57 -32 c-71 -41 -248 -173 -298 -223 -39 -38 -92 -63 -205
-96 -35 -10 -107 -40 -160 -68 -193 -99 -388 -166 -582 -200 -238 -43 -288
-53 -400 -81 -214 -54 -363 -118 -435 -188 -46 -45 -71 -84 -142 -221 -31 -58
-64 -118 -75 -134 -23 -31 -107 -97 -333 -257 -88 -63 -166 -120 -173 -127 -7
-7 -19 -13 -25 -13 -25 0 22 -31 129 -84 290 -144 594 -234 894 -263 97 -10
424 -10 516 -1 494 51 956 241 1349 556 109 87 252 224 330 317 28 33 56 66
63 73 23 25 149 206 193 277 71 117 165 313 214 450 26 72 49 137 51 145 2 8
14 58 27 110 14 52 27 111 31 130 3 19 8 46 11 59 2 14 7 47 11 75 3 28 8 62
10 76 9 49 12 456 4 525 -17 137 -21 169 -32 219 -5 28 -14 69 -18 92 -62 297
-217 648 -405 914 -357 503 -875 861 -1463 1011 -118 30 -169 39 -347 64 -46
7 -460 16 -466 11z"/>
</g>
</svg>
